{"title":"Caught in the Crossfire (2010) 720p  Dual Audio [HINDI-ENGLISH]","uid":9184215,"size":883347806,"categoryP":"video","categoryS":"hd___movies","magnet":"?xt=urn:btih:3cc9cfd42cb59cecface0849075e61f3312acdfd&amp;dn=+Caught+in+the+Crossfire+%282010%29+720p++Dual+Audio+%5BHINDI-ENGLISH%5D&amp;tr=udp%3A%2F%2Ftracker.openbittorrent.com%3A80&amp;tr=udp%3A%2F%2Fopen.demonii.com%3A1337&amp;tr=udp%3A%2F%2Ftracker.coppersurfer.tk%3A6969&amp;tr=udp%3A%2F%2Fexodus.desync.com%3A6969","seeders":1,"leechers":0,"uploader":"shawnmurthy","files":-1,"time":1384270419,"description":"Get all Pimp4003 newest releases first at http://www.pimp4003.se with VIP downloads speed \n\n\nPIMP4003-TORRENTS AND PIMPRG PROUDLY PRESENTS\n\n\nCaught in the Crossfire (2010) 720p BrRipx264 Dual Audio [HINDI-ENGLISH] Pimp4003 (PimpRG)\n\n\n\nFile Info:\n\nFormat                                   : Matroska\nFormat version                           : Version 2\nFile size                                : 827 MiB\nDuration                                 : 1h 24mn\nOverall bit rate mode                    : Variable\nOverall bit rate                         : 1 366 Kbps\nMovie name                               : Caught in the Crossfire (2010) Dual Audio [HINDI-ENGLISH] Pimp4003 (PimpRG)\nEncoded date                             : UTC 2013-11-09 16:27:41\n\nVideo Info:\n\n\nDuration                                 : 1h 24mn\nBit rate mode                            : Variable\nBit rate                                 : 1 200 Kbps\nMaximum bit rate                         : 25.0 Mbps\nWidth                                    : 1 280 pixels\nHeight                                   : 692 pixels\nDisplay aspect ratio                     : 1.85:1\nFrame rate mode                          : Constant\nFrame rate                               : 25.000 fps\n\n\nAudio Info:\n\n\nAudio #1\n\nDuration                                 : 1h 24mn\nBit rate mode                            : Constant\nBit rate                                 : 96.0 Kbps\nChannel(s)                               : 2 channels\nSampling rate                            : 44.1 KHz\nCompression mode                         : Lossy\nStream size                              : 58.1 MiB (7%)\nTitle                                    : Pimp4003\nWriting library                          : LAME3.98.2\nLanguage                                 : Hindi\n\nAudio #2\n\nDuration                                 : 1h 24mn\nBit rate mode                            : Variable\nBit rate                                 : 96.0 Kbps\nChannel(s)                               : 2 channels\nSampling rate                            : 48.0 KHz\nCompression mode                         : Lossy\nStream size                              : 58.1 MiB (7%)\nTitle                                    : Pimp4003\n\n\nScreen shots\n\n &lt;a href=&quot;\nhttp://piczhub.com/images/2013/11/12/Screen_shotsnUXuN.png&quot; rel=&quot;nofollow&quot; target=&quot;_NEW&quot;&gt;\nhttp://piczhub.com/images/2013/11/12/Screen_shotsnUXuN.png&lt;/a&gt;\n &lt;a href=&quot;\nhttp://piczhub.com/images/2013/11/12/Screen_shots_1bQfvw.png&quot; rel=&quot;nofollow&quot; target=&quot;_NEW&quot;&gt;\nhttp://piczhub.com/images/2013/11/12/Screen_shots_1bQfvw.png&lt;/a&gt;\n &lt;a href=&quot;\nhttp://piczhub.com/images/2013/11/12/Screen_shots_2UrjOh.png&quot; rel=&quot;nofollow&quot; target=&quot;_NEW&quot;&gt;\nhttp://piczhub.com/images/2013/11/12/Screen_shots_2UrjOh.png&lt;/a&gt;\n &lt;a href=&quot;\nhttp://piczhub.com/images/2013/11/12/Screen_shots_3.png&quot; rel=&quot;nofollow&quot; target=&quot;_NEW&quot;&gt;\nhttp://piczhub.com/images/2013/11/12/Screen_shots_3.png&lt;/a&gt;\n &lt;a href=&quot;\nhttp://piczhub.com/images/2013/11/12/Screen_shots_4.png&quot; rel=&quot;nofollow&quot; target=&quot;_NEW&quot;&gt;\nhttp://piczhub.com/images/2013/11/12/Screen_shots_4.png&lt;/a&gt;\n &lt;a href=&quot;\nhttp://piczhub.com/images/2013/11/12/Screen_shots_5.png&quot; rel=&quot;nofollow&quot; target=&quot;_NEW&quot;&gt;\nhttp://piczhub.com/images/2013/11/12/Screen_shots_5.png&lt;/a&gt;\n &lt;a href=&quot;\nhttp://piczhub.com/images/2013/11/12/Screen_shots_6.png&quot; rel=&quot;nofollow&quot; target=&quot;_NEW&quot;&gt;\nhttp://piczhub.com/images/2013/11/12/Screen_shots_6.png&lt;/a&gt;\n &lt;a href=&quot;\nhttp://piczhub.com/images/2013/11/12/Screen_shots_7.png&quot; rel=&quot;nofollow&quot; target=&quot;_NEW&quot;&gt;\nhttp://piczhub.com/images/2013/11/12/Screen_shots_7.png&lt;/a&gt;\n &lt;a href=&quot;\nhttp://piczhub.com/images/2013/11/12/Screen_shots_8.png&quot; rel=&quot;nofollow&quot; target=&quot;_NEW&quot;&gt;\nhttp://piczhub.com/images/2013/11/12/Screen_shots_8.png&lt;/a&gt;\n\n\n\nNOTES...NOTES...NOTES\n\nALWAYS ON SEED BOX\n\nBETTER.......ENJOY......ENCODED BY PIMP4003\n\nGREETZ TO PIMPRG AND ALL OTHER GROUPS\n\nSUJAIDR | JUNAIDZIA | RICKYKT | LOKKIODDIN | SCENEDL | DEEP1007 AND ALL OTHER P2P AND SCENE GROUPS\t","torrent":{"xt":"urn:btih:3cc9cfd42cb59cecface0849075e61f3312acdfd","amp;dn":"+Caught+in+the+Crossfire+%282010%29+720p++Dual+Audio+%5BHINDI-ENGLISH%5D","amp;tr":["udp%3A%2F%2Ftracker.openbittorrent.com%3A80","udp%3A%2F%2Fopen.demonii.com%3A1337","udp%3A%2F%2Ftracker.coppersurfer.tk%3A6969","udp%3A%2F%2Fexodus.desync.com%3A6969"],"infoHash":"3cc9cfd42cb59cecface0849075e61f3312acdfd","infoHashBuffer":{"type":"Buffer","data":[60,201,207,212,44,181,156,236,250,206,8,73,7,94,97,243,49,42,205,253]},"announce":[],"urlList":[]}}